<?xml version="1.0" encoding="UTF-8"?>
<!--
  ASTEROIDS — HUD LAYOUT DESIGN (v2)
  ════════════════════════════════════
  Shows the 3-plane compositing model + transparent HUD overlay.

  Planes (bottom → top, ascending z_index):
    1. STARS      z=0   slow-parallax star field, static/drifting points
    2. PLANETS    z=1   large dim parallax bodies (no collision)
    3. GAME       z=2   ship, asteroids, bullets, particles, debris
    HUD           z=10  transparent corner panels, text + vector hearts only

  Sections
  ─────────
  A  Layer stack exploded view (isometric-style)
  B  In-game composited mockup (640×360)
  C  Component specs
  D  Grid anatomy
  E  Transparency principle
-->
<svg xmlns="http://www.w3.org/2000/svg"
     width="1280" height="820" viewBox="0 0 1280 820"
     font-family="'Courier New', Consolas, monospace">

  <defs>
    <filter id="glow-gold" x="-40%" y="-40%" width="180%" height="180%">
      <feGaussianBlur in="SourceGraphic" stdDeviation="2.5" result="b"/>
      <feMerge><feMergeNode in="b"/><feMergeNode in="SourceGraphic"/></feMerge>
    </filter>
    <filter id="glow-heart" x="-40%" y="-40%" width="180%" height="180%">
      <feGaussianBlur in="SourceGraphic" stdDeviation="2" result="b"/>
      <feMerge><feMergeNode in="b"/><feMergeNode in="SourceGraphic"/></feMerge>
    </filter>
    <filter id="glow-dim" x="-20%" y="-20%" width="140%" height="140%">
      <feGaussianBlur in="SourceGraphic" stdDeviation="1" result="b"/>
      <feMerge><feMergeNode in="b"/><feMergeNode in="SourceGraphic"/></feMerge>
    </filter>
    <filter id="glow-planet" x="-30%" y="-30%" width="160%" height="160%">
      <feGaussianBlur in="SourceGraphic" stdDeviation="4" result="b"/>
      <feMerge><feMergeNode in="b"/><feMergeNode in="SourceGraphic"/></feMerge>
    </filter>
    <!-- Stars pattern for layer-1 plane -->
    <pattern id="stars-dense" x="0" y="0" width="80" height="60" patternUnits="userSpaceOnUse">
      <circle cx="8"  cy="6"  r="0.8" fill="#fff" opacity="0.70"/>
      <circle cx="30" cy="20" r="0.5" fill="#fff" opacity="0.50"/>
      <circle cx="55" cy="8"  r="1.1" fill="#fff" opacity="0.55"/>
      <circle cx="18" cy="42" r="0.6" fill="#f6ae2d" opacity="0.40"/>
      <circle cx="44" cy="35" r="0.7" fill="#fff" opacity="0.35"/>
      <circle cx="3"  cy="28" r="0.5" fill="#fff" opacity="0.50"/>
      <circle cx="66" cy="50" r="0.8" fill="#fff" opacity="0.60"/>
      <circle cx="72" cy="22" r="0.5" fill="#fff" opacity="0.45"/>
      <circle cx="14" cy="54" r="0.6" fill="#fff" opacity="0.35"/>
      <circle cx="38" cy="12" r="0.4" fill="#fff" opacity="0.40"/>
    </pattern>
    <!-- Stars pattern for composited mockup -->
    <pattern id="stars-sparse" x="0" y="0" width="100" height="80" patternUnits="userSpaceOnUse">
      <circle cx="14"  cy="10" r="0.7" fill="#fff" opacity="0.60"/>
      <circle cx="48"  cy="28" r="0.5" fill="#fff" opacity="0.40"/>
      <circle cx="74"  cy="8"  r="1.0" fill="#fff" opacity="0.50"/>
      <circle cx="28"  cy="55" r="0.6" fill="#f6ae2d" opacity="0.35"/>
      <circle cx="62"  cy="45" r="0.8" fill="#fff" opacity="0.30"/>
      <circle cx="5"   cy="38" r="0.5" fill="#fff" opacity="0.45"/>
      <circle cx="86"  cy="65" r="0.7" fill="#fff" opacity="0.55"/>
      <circle cx="38"  cy="18" r="0.4" fill="#fff" opacity="0.35"/>
      <circle cx="92"  cy="30" r="0.6" fill="#fff" opacity="0.40"/>
      <circle cx="20"  cy="72" r="0.5" fill="#fff" opacity="0.30"/>
    </pattern>
  </defs>

  <!-- ── doc background ── -->
  <rect width="1280" height="820" fill="#0d1117"/>
  <rect width="1280" height="2" fill="#58a6ff" opacity="0.50"/>

  <!-- ══════════════════════════════════════════════════════
       HEADER
  ══════════════════════════════════════════════════════ -->
  <text x="40" y="32" font-size="15" fill="#e6edf3" font-weight="bold" letter-spacing="3">ASTEROIDS · HUD + LAYER STACK DESIGN</text>
  <text x="40" y="50" font-size="10" fill="#484f58" letter-spacing="1">render_size: 640×360  ·  3 composited planes  ·  transparent HUD overlay on top  ·  z: stars=0  planets=1  game=2  hud=10</text>
  <line x1="40" y1="60" x2="1240" y2="60" stroke="#21262d"/>

  <text x="40"  y="73" font-size="10" fill="#58a6ff" letter-spacing="2">A. LAYER STACK (exploded)</text>
  <text x="580" y="73" font-size="10" fill="#58a6ff" letter-spacing="2">B. COMPOSITED MOCKUP (640×360)</text>

  <!-- ══════════════════════════════════════════════════════
       A. LAYER STACK EXPLODED VIEW  — isometric offset
       Each plane: 320×90  offset per layer: dx=20, dy=-52
       Bottom plane (stars) origin: (40, 380)
       Planets:  (60, 328)
       Game:     (80, 276)
       HUD:      (100,224)
  ══════════════════════════════════════════════════════ -->

  <!-- ── LAYER 0: STARS  ─── -->
  <!-- plane parallelogram: tl(40,380) tr(360,380) br(360,470) bl(40,470) + skew label -->
  <rect x="40" y="340" width="320" height="90" fill="#030810" rx="2"/>
  <rect x="40" y="340" width="320" height="90" fill="url(#stars-dense)"/>
  <rect x="40" y="340" width="320" height="90" fill="none" stroke="#1a2a4a" stroke-width="1.5" rx="2"/>

  <!-- layer 0 accent stars -->
  <circle cx="98"  cy="360" r="1.4" fill="#fff" opacity="0.80"/>
  <circle cx="280" cy="352" r="1.0" fill="#f6ae2d" opacity="0.70"/>
  <circle cx="200" cy="408" r="1.2" fill="#fff" opacity="0.65"/>
  <circle cx="340" cy="390" r="0.9" fill="#fff" opacity="0.60"/>
  <circle cx="72"  cy="420" r="1.0" fill="#fff" opacity="0.55"/>

  <!-- layer 0 label tab -->
  <rect x="40" y="323" width="130" height="18" fill="#0d1117" rx="2" stroke="#1a2a4a"/>
  <text x="48" y="335" font-size="9" fill="#8b949e" font-weight="bold">LAYER 0 · STARS</text>
  <text x="184" y="335" font-size="8" fill="#3d4a6b">z_index: 0</text>
  <!-- z_index badge -->
  <rect x="322" y="323" width="38" height="18" fill="#0d2040" rx="2"/>
  <text x="341" y="335" font-size="9" fill="#58a6ff" text-anchor="middle" font-weight="bold">z=0</text>

  <!-- ── LAYER 1: PLANETS ── -->
  <rect x="60" y="252" width="320" height="90" fill="#05091a" rx="2" opacity="0.92"/>
  <rect x="60" y="252" width="320" height="90" fill="url(#stars-dense)" opacity="0.25"/>
  <rect x="60" y="252" width="320" height="90" fill="none" stroke="#1e2a50" stroke-width="1.5" rx="2"/>

  <!-- planet bodies on layer 1 -->
  <!-- large dim planet (far right) -->
  <circle cx="330" cy="295" r="36" fill="none" stroke="#1a244a" stroke-width="1"/>
  <circle cx="330" cy="295" r="34" fill="#0a1230" opacity="0.85" filter="url(#glow-planet)"/>
  <ellipse cx="320" cy="283" rx="30" ry="8" fill="none" stroke="#1e3060" stroke-width="1" opacity="0.5"/>
  <!-- smaller planet (left) -->
  <circle cx="100" cy="310" r="18" fill="#0c1428" opacity="0.90" filter="url(#glow-planet)"/>
  <circle cx="100" cy="310" r="17" fill="none" stroke="#1a2848" stroke-width="1"/>
  <!-- tiny moons -->
  <circle cx="148" cy="295" r="5" fill="#0a1020" opacity="0.80"/>
  <circle cx="148" cy="295" r="4"  fill="none" stroke="#162040" stroke-width="1"/>
  <circle cx="72"  cy="335" r="3"  fill="#0a0e1a" opacity="0.70"/>

  <!-- layer 1 label tab -->
  <rect x="60" y="235" width="140" height="18" fill="#0d1117" rx="2" stroke="#1e2a50"/>
  <text x="68" y="247" font-size="9" fill="#8b949e" font-weight="bold">LAYER 1 · PLANETS</text>
  <text x="214" y="247" font-size="8" fill="#3d4a6b">z_index: 1 · parallax</text>
  <rect x="342" y="235" width="38" height="18" fill="#0d2040" rx="2"/>
  <text x="361" y="247" font-size="9" fill="#58a6ff" text-anchor="middle" font-weight="bold">z=1</text>

  <!-- ── LAYER 2: GAME ── -->
  <rect x="80" y="164" width="320" height="90" fill="#060620" rx="2" opacity="0.96"/>
  <rect x="80" y="164" width="320" height="90" fill="none" stroke="#2a3a70" stroke-width="1.5" rx="2"/>

  <!-- large asteroid -->
  <ellipse cx="158" cy="202" rx="32" ry="28" fill="none" stroke="#2e5eaa" stroke-width="1.5"/>
  <!-- medium asteroid -->
  <ellipse cx="320" cy="188" rx="18" ry="16" fill="none" stroke="#2e5eaa"/>
  <!-- small asteroid -->
  <ellipse cx="260" cy="222" rx="10" ry="9"  fill="none" stroke="#2e5eaa"/>
  <!-- bullet -->
  <line x1="228" y1="198" x2="228" y2="180" stroke="#8dd6d4" stroke-width="1.5" opacity="0.8"/>
  <circle cx="228" cy="178" r="2" fill="#8dd6d4"/>
  <!-- ship -->
  <polygon points="228,198 220,218 228,212 236,218" fill="#f6ae2d" filter="url(#glow-dim)"/>
  <!-- thruster -->
  <ellipse cx="228" cy="222" rx="3" ry="5" fill="#ff6600" opacity="0.55"/>
  <!-- particles (dots) -->
  <circle cx="228" cy="229" r="1.5" fill="#ff4400" opacity="0.40"/>
  <circle cx="226" cy="234" r="1.0" fill="#ff2200" opacity="0.25"/>
  <circle cx="230" cy="236" r="1.0" fill="#ff2200" opacity="0.20"/>

  <!-- layer 2 label tab -->
  <rect x="80" y="147" width="150" height="18" fill="#0d1117" rx="2" stroke="#2a3a70"/>
  <text x="88" y="159" font-size="9" fill="#e6edf3" font-weight="bold">LAYER 2 · GAME PLANE</text>
  <text x="244" y="159" font-size="8" fill="#3d4a6b">z_index: 2</text>
  <rect x="362" y="147" width="38" height="18" fill="#0d2040" rx="2"/>
  <text x="381" y="159" font-size="9" fill="#58a6ff" text-anchor="middle" font-weight="bold">z=2</text>

  <!-- ── HUD OVERLAY ── -->
  <rect x="100" y="76" width="320" height="90" fill="rgba(6,6,32,0.00)" rx="2"/>
  <rect x="100" y="76" width="320" height="90" fill="none" stroke="#3a6aaa" stroke-width="1" stroke-dasharray="4,3" rx="2"/>

  <!-- HUD score TL -->
  <text x="110" y="98" font-size="7" fill="#8da6cc" letter-spacing="2" filter="url(#glow-dim)">SCORE</text>
  <text x="110" y="118" font-size="16" fill="#f6ae2d" font-weight="bold" filter="url(#glow-gold)">08500</text>
  <!-- HUD wave TR -->
  <text x="408" y="98" text-anchor="end" font-size="7" fill="#8da6cc" letter-spacing="2" filter="url(#glow-dim)">WAVE</text>
  <text x="408" y="118" text-anchor="end" font-size="16" fill="#f6ae2d" font-weight="bold" filter="url(#glow-gold)">03</text>
  <!-- HUD hearts BL -->
  <g transform="translate(122,152)" filter="url(#glow-heart)">
    <path d="M0,-6 C-1,-11 -8,-11 -8,-6 C-8,-2 -4,2 0,6 C4,2 8,-2 8,-6 C8,-11 1,-11 0,-6" fill="#EE3366"/>
  </g>
  <g transform="translate(140,152)" filter="url(#glow-heart)">
    <path d="M0,-6 C-1,-11 -8,-11 -8,-6 C-8,-2 -4,2 0,6 C4,2 8,-2 8,-6 C8,-11 1,-11 0,-6" fill="#EE3366"/>
  </g>
  <g transform="translate(158,152)" filter="url(#glow-heart)">
    <path d="M0,-6 C-1,-11 -8,-11 -8,-6 C-8,-2 -4,2 0,6 C4,2 8,-2 8,-6 C8,-11 1,-11 0,-6" fill="#EE3366"/>
  </g>
  <!-- HUD hint BR -->
  <text x="408" y="160" text-anchor="end" font-size="7" fill="#8da6cc" opacity="0.7">ESC  MENU</text>

  <!-- HUD label tab -->
  <rect x="100" y="59" width="154" height="18" fill="#0d1117" rx="2" stroke="#3a6aaa" stroke-dasharray="3,3"/>
  <text x="108" y="71" font-size="9" fill="#58a6ff" font-weight="bold">HUD · TRANSPARENT</text>
  <text x="268" y="71" font-size="8" fill="#3d4a6b">z_index: 10</text>
  <rect x="382" y="59" width="38" height="18" fill="#0d2040" rx="2"/>
  <text x="401" y="71" font-size="9" fill="#58a6ff" text-anchor="middle" font-weight="bold">z=10</text>

  <!-- ── CONNECTING ARROWS (stack flow) ── -->
  <line x1="200" y1="340" x2="200" y2="252" stroke="#21262d" stroke-width="1"/>
  <line x1="200" y1="252" x2="200" y2="164" stroke="#21262d" stroke-width="1"/>
  <line x1="200" y1="164" x2="200" y2="76"  stroke="#21262d" stroke-width="1"/>
  <polygon points="200,76 197,82 203,82" fill="#21262d"/>
  <text x="209" y="310" font-size="8" fill="#3d4a6b">composite</text>
  <text x="209" y="222" font-size="8" fill="#3d4a6b">↑ draw order</text>

  <!-- ── LAYER LEGEND (bottom-left) ── -->
  <rect x="40" y="460" width="380" height="52" fill="#161b22" rx="3" stroke="#21262d"/>
  <text x="52" y="475" font-size="9" fill="#484f58" letter-spacing="1">PLANE RESPONSIBILITIES</text>
  <circle cx="60" cy="490" r="5" fill="#030810" stroke="#1a2a4a"/>
  <text x="70" y="494" font-size="9" fill="#8b949e">Stars — static dots + slow drift.  Pure decoration, never collide.</text>
  <circle cx="60" cy="504" r="5" fill="#0c1428" stroke="#1a2848"/>
  <text x="70" y="508" font-size="9" fill="#8b949e">Planets — large vector shapes, parallax scroll, no gameplay role.</text>

  <!-- ══════════════════════════════════════════════════════
       B. COMPOSITED MOCKUP  origin (580,78)  640×360
       margins: left x=604  right x=1196  top y=94  bottom y=422
  ══════════════════════════════════════════════════════ -->

  <!-- PLANE 0: stars -->
  <rect x="580" y="78" width="640" height="360" fill="#030810"/>
  <rect x="580" y="78" width="640" height="360" fill="url(#stars-sparse)"/>
  <!-- bright accent stars -->
  <circle cx="650"  cy="135" r="1.3" fill="#fff" opacity="0.70"/>
  <circle cx="1120" cy="108" r="1.0" fill="#f6ae2d" opacity="0.60"/>
  <circle cx="970"  cy="345" r="1.0" fill="#fff" opacity="0.45"/>
  <circle cx="712"  cy="292" r="0.8" fill="#fff" opacity="0.50"/>
  <circle cx="1152" cy="298" r="0.9" fill="#fff" opacity="0.35"/>
  <circle cx="624"  cy="315" r="1.1" fill="#fff" opacity="0.40"/>
  <circle cx="1042" cy="248" r="0.7" fill="#fff" opacity="0.55"/>
  <circle cx="822"  cy="118" r="0.9" fill="#fff" opacity="0.40"/>
  <circle cx="1048" cy="342" r="0.7" fill="#fff" opacity="0.35"/>
  <circle cx="884"  cy="158" r="1.0" fill="#fff" opacity="0.35"/>

  <!-- PLANE 1: planets -->
  <!-- large far planet -->
  <circle cx="1080" cy="220" r="88" fill="#0a1230" opacity="0.70" filter="url(#glow-planet)"/>
  <circle cx="1080" cy="220" r="87" fill="none" stroke="#1a2850" stroke-width="1" opacity="0.60"/>
  <ellipse cx="1060" cy="192" rx="74" ry="18" fill="none" stroke="#1e3060" stroke-width="1" opacity="0.40"/>
  <!-- ring system (faint) -->
  <ellipse cx="1080" cy="222" rx="108" ry="16" fill="none" stroke="#1a2a60" stroke-width="1.5" opacity="0.35"/>
  <!-- surface bands -->
  <ellipse cx="1080" cy="230" rx="80" ry="12" fill="none" stroke="#12183a" stroke-width="2" opacity="0.50"/>
  <!-- small blue-grey planet -->
  <circle cx="652"  cy="296" r="32" fill="#090e20" opacity="0.75" filter="url(#glow-planet)"/>
  <circle cx="652"  cy="296" r="31" fill="none" stroke="#141e3a" stroke-width="1" opacity="0.55"/>
  <!-- tiny moon -->
  <circle cx="704"  cy="275" r="7"  fill="#070a14" opacity="0.65"/>
  <circle cx="704"  cy="275" r="6"  fill="none" stroke="#101828" stroke-width="1"/>

  <!-- PLANE 2: game -->
  <!-- large asteroid -->
  <ellipse cx="758" cy="218" rx="44" ry="40" fill="none" stroke="#2e5eaa" stroke-width="2"/>
  <line x1="736" y1="203" x2="750" y2="192" stroke="#2e5eaa" opacity="0.50"/>
  <line x1="788" y1="233" x2="801" y2="226" stroke="#2e5eaa" opacity="0.40"/>
  <line x1="772" y1="256" x2="780" y2="265" stroke="#2e5eaa" opacity="0.40"/>
  <!-- medium asteroid -->
  <ellipse cx="1064" cy="186" rx="28" ry="25" fill="none" stroke="#2e5eaa" stroke-width="1.5"/>
  <!-- small asteroids -->
  <ellipse cx="926"  cy="298" rx="14" ry="13" fill="none" stroke="#2e5eaa"/>
  <ellipse cx="690"  cy="336" rx="11" ry="12" fill="none" stroke="#2e5eaa"/>
  <!-- bullet -->
  <line x1="910" y1="264" x2="910" y2="232" stroke="#8dd6d4" stroke-width="1.5" opacity="0.75"/>
  <circle cx="910" cy="229" r="2.5" fill="#8dd6d4"/>
  <!-- ship + thrust -->
  <polygon points="910,264 898,294 910,285 922,294" fill="#f6ae2d" filter="url(#glow-dim)"/>
  <ellipse cx="910" cy="301" rx="4" ry="6"  fill="#ff6600" opacity="0.55"/>
  <ellipse cx="910" cy="309" rx="2.5" ry="4" fill="#ff3300" opacity="0.30"/>
  <!-- particle trail -->
  <circle cx="910" cy="316" r="2" fill="#ff4400" opacity="0.35"/>
  <circle cx="908" cy="322" r="1.5" fill="#ff3300" opacity="0.22"/>
  <circle cx="912" cy="325" r="1"   fill="#ff2200" opacity="0.15"/>

  <!-- game area border -->
  <rect x="580" y="78" width="640" height="360" fill="none" stroke="#151e38" stroke-width="2"/>

  <!-- ── margin guide lines ── -->
  <line x1="580"  y1="94"  x2="1220" y2="94"  stroke="#1a2040" stroke-dasharray="4,6"/>
  <line x1="580"  y1="422" x2="1220" y2="422" stroke="#1a2040" stroke-dasharray="4,6"/>
  <line x1="604"  y1="78"  x2="604"  y2="444" stroke="#1a2040" stroke-dasharray="4,6"/>
  <line x1="1196" y1="78"  x2="1196" y2="444" stroke="#1a2040" stroke-dasharray="4,6"/>

  <!-- ── HUD overlay (transparent — text/hearts only) ── -->
  <!-- panel outlines (guide only) -->
  <rect x="604"  y="94"  width="140" height="62" fill="rgba(88,166,255,0.03)" stroke="#2d5aaa" stroke-dasharray="3,4" rx="2"/>
  <rect x="1056" y="94"  width="140" height="62" fill="rgba(88,166,255,0.03)" stroke="#2d5aaa" stroke-dasharray="3,4" rx="2"/>
  <rect x="604"  y="384" width="154" height="50" fill="rgba(88,166,255,0.03)" stroke="#2d5aaa" stroke-dasharray="3,4" rx="2"/>
  <rect x="1080" y="414" width="116" height="22" fill="rgba(88,166,255,0.03)" stroke="#2d5aaa" stroke-dasharray="3,4" rx="2"/>

  <!-- callout badges -->
  <circle cx="604"  cy="94"  r="9" fill="#0d1117" stroke="#58a6ff" stroke-width="1.5"/>
  <text x="604"  y="98"  font-size="9" fill="#58a6ff" text-anchor="middle" font-weight="bold">A</text>
  <circle cx="1196" cy="94"  r="9" fill="#0d1117" stroke="#58a6ff" stroke-width="1.5"/>
  <text x="1196" y="98"  font-size="9" fill="#58a6ff" text-anchor="middle" font-weight="bold">B</text>
  <circle cx="604"  cy="434" r="9" fill="#0d1117" stroke="#58a6ff" stroke-width="1.5"/>
  <text x="604"  y="438" font-size="9" fill="#58a6ff" text-anchor="middle" font-weight="bold">C</text>
  <circle cx="1196" cy="434" r="9" fill="#0d1117" stroke="#58a6ff" stroke-width="1.5"/>
  <text x="1196" y="438" font-size="9" fill="#58a6ff" text-anchor="middle" font-weight="bold">D</text>

  <!-- SCORE -->
  <text x="612" y="111" font-size="8" fill="#8da6cc" letter-spacing="3" filter="url(#glow-dim)">SCORE</text>
  <text x="612" y="140" font-size="24" fill="#f6ae2d" font-weight="bold" filter="url(#glow-gold)">08500</text>
  <!-- WAVE -->
  <text x="1188" y="111" text-anchor="end" font-size="8" fill="#8da6cc" letter-spacing="3" filter="url(#glow-dim)">WAVE</text>
  <text x="1188" y="140" text-anchor="end" font-size="24" fill="#f6ae2d" font-weight="bold" filter="url(#glow-gold)">03</text>
  <!-- LIVES hearts -->
  <g transform="translate(633,408)" filter="url(#glow-heart)">
    <path d="M0,-9 C-2,-16 -12,-16 -12,-9 C-12,-3 -6,3 0,9 C6,3 12,-3 12,-9 C12,-16 2,-16 0,-9" fill="#EE3366"/>
  </g>
  <g transform="translate(669,408)" filter="url(#glow-heart)">
    <path d="M0,-9 C-2,-16 -12,-16 -12,-9 C-12,-3 -6,3 0,9 C6,3 12,-3 12,-9 C12,-16 2,-16 0,-9" fill="#EE3366"/>
  </g>
  <g transform="translate(705,408)" filter="url(#glow-heart)">
    <path d="M0,-9 C-2,-16 -12,-16 -12,-9 C-12,-3 -6,3 0,9 C6,3 12,-3 12,-9 C12,-16 2,-16 0,-9" fill="#EE3366"/>
  </g>
  <!-- HINT -->
  <text x="1188" y="424" text-anchor="end" font-size="9" fill="#8da6cc" opacity="0.7">ESC  MENU</text>

  <!-- margin callouts (right side of mockup) -->
  <line x1="1228" y1="78"  x2="1228" y2="94"  stroke="#3d4a6b"/>
  <polygon points="1228,78 1225,84 1231,84" fill="#3d4a6b"/>
  <polygon points="1228,94 1225,88 1231,88" fill="#3d4a6b"/>
  <text x="1238" y="89" font-size="8" fill="#3d4a6b">16px</text>
  <line x1="580" y1="452" x2="604" y2="452" stroke="#3d4a6b"/>
  <polygon points="580,452 586,449 586,455" fill="#3d4a6b"/>
  <polygon points="604,452 598,449 598,455" fill="#3d4a6b"/>
  <text x="592" y="462" font-size="8" fill="#3d4a6b" text-anchor="middle">24px</text>

  <!-- ══════════════════════════════════════════════════════
       SECTION DIVIDER
  ══════════════════════════════════════════════════════ -->
  <line x1="40" y1="530" x2="1240" y2="530" stroke="#21262d"/>
  <text x="40"   y="544" font-size="10" fill="#58a6ff" letter-spacing="2">C. COMPONENT SPECS</text>
  <text x="480"  y="544" font-size="10" fill="#58a6ff" letter-spacing="2">D. GRID ANATOMY</text>
  <text x="760"  y="544" font-size="10" fill="#58a6ff" letter-spacing="2">E. TRANSPARENCY PRINCIPLE</text>

  <!-- ══════════════════════════════════════════════════════
       C. COMPONENT SPECS  (40,550) w=420
  ══════════════════════════════════════════════════════ -->
  <rect x="40" y="550" width="420" height="238" fill="#161b22" rx="3" stroke="#21262d"/>

  <!-- Spec A -->
  <rect x="52" y="560" width="396" height="50" fill="#0d1117" rx="3"/>
  <circle cx="66" cy="573" r="7" fill="#0d1117" stroke="#58a6ff" stroke-width="1.5"/>
  <text x="66" y="577" font-size="9" fill="#58a6ff" text-anchor="middle" font-weight="bold">A</text>
  <text x="80" y="575" font-size="9" fill="#e6edf3" font-weight="bold">SCORE PANEL · top-left</text>
  <text x="430" y="575" font-size="9" fill="#3fb950" text-anchor="end">no bg ✓</text>
  <text x="80" y="589" font-size="9" fill="#8b949e">anchor: tl · pad: 8px · no bg_colour · no border · no shadow</text>
  <text x="80" y="602" font-size="9" fill="#8b949e">label: Orbitron:ascii hud_label · value: generic:2 hud_value</text>

  <!-- Spec B -->
  <rect x="52" y="616" width="396" height="50" fill="#0d1117" rx="3"/>
  <circle cx="66" cy="629" r="7" fill="#0d1117" stroke="#58a6ff" stroke-width="1.5"/>
  <text x="66" y="633" font-size="9" fill="#58a6ff" text-anchor="middle" font-weight="bold">B</text>
  <text x="80" y="631" font-size="9" fill="#e6edf3" font-weight="bold">WAVE PANEL · top-right</text>
  <text x="430" y="631" font-size="9" fill="#3fb950" text-anchor="end">no bg ✓</text>
  <text x="80" y="645" font-size="9" fill="#8b949e">anchor: tr · pad: 8px · no bg_colour · right-aligned text</text>
  <text x="80" y="658" font-size="9" fill="#8b949e">label: Orbitron:ascii hud_label · value: generic:2 hud_value</text>

  <!-- Spec C -->
  <rect x="52" y="672" width="396" height="50" fill="#0d1117" rx="3"/>
  <circle cx="66" cy="685" r="7" fill="#0d1117" stroke="#58a6ff" stroke-width="1.5"/>
  <text x="66" y="689" font-size="9" fill="#58a6ff" text-anchor="middle" font-weight="bold">C</text>
  <text x="80" y="687" font-size="9" fill="#e6edf3" font-weight="bold">LIVES PANEL · bottom-left</text>
  <text x="430" y="687" font-size="9" fill="#3fb950" text-anchor="end">no bg ✓</text>
  <text x="80" y="701" font-size="9" fill="#8b949e">anchor: bl · 154×50px · pad: 6px · no bg_colour</text>
  <text x="80" y="714" font-size="9" fill="#8b949e">3× vector hearts · fg+bg: hud_heart (#EE3366) · x:27/75/123</text>

  <!-- Spec D -->
  <rect x="52" y="728" width="396" height="48" fill="#0d1117" rx="3"/>
  <circle cx="66" cy="741" r="7" fill="#0d1117" stroke="#58a6ff" stroke-width="1.5"/>
  <text x="66" y="745" font-size="9" fill="#58a6ff" text-anchor="middle" font-weight="bold">D</text>
  <text x="80" y="743" font-size="9" fill="#e6edf3" font-weight="bold">HINT PANEL · bottom-right</text>
  <text x="430" y="743" font-size="9" fill="#3fb950" text-anchor="end">no bg ✓</text>
  <text x="80" y="757" font-size="9" fill="#8b949e">anchor: br · pad: 8px · text-only · opacity: 0.7</text>
  <text x="80" y="770" font-size="9" fill="#8b949e">font: generic:1 · hud_label · "ESC  MENU"</text>

  <!-- ══════════════════════════════════════════════════════
       D. GRID ANATOMY  (480,550) w=260 h=238
       Scale 0.375×  640→240  360→135
  ══════════════════════════════════════════════════════ -->
  <rect x="480" y="550" width="260" height="238" fill="#161b22" rx="3" stroke="#21262d"/>

  <!-- outer frame rect -->
  <rect x="492" y="562" width="240" height="135" fill="#060c18" stroke="#21262d" rx="2"/>

  <!-- outer-frame guides (blue dashed) -->
  <line x1="501" y1="562" x2="501" y2="697" stroke="#2d5aaa" stroke-dasharray="2,3" opacity="0.7"/>
  <line x1="723" y1="562" x2="723" y2="697" stroke="#2d5aaa" stroke-dasharray="2,3" opacity="0.7"/>
  <line x1="492" y1="568" x2="732" y2="568" stroke="#2d5aaa" stroke-dasharray="2,3" opacity="0.7"/>
  <line x1="492" y1="691" x2="732" y2="691" stroke="#2d5aaa" stroke-dasharray="2,3" opacity="0.7"/>

  <!-- hud-grid cell guides (dim dashed) -->
  <line x1="553" y1="568" x2="553" y2="691" stroke="#444c56" stroke-dasharray="2,3"/>
  <line x1="671" y1="568" x2="671" y2="691" stroke="#444c56" stroke-dasharray="2,3"/>
  <line x1="501" y1="594" x2="723" y2="594" stroke="#444c56" stroke-dasharray="2,3"/>
  <line x1="501" y1="665" x2="723" y2="665" stroke="#444c56" stroke-dasharray="2,3"/>

  <!-- corner highlights -->
  <rect x="501" y="568" width="52" height="26" fill="#58a6ff" opacity="0.06" rx="1"/>
  <rect x="671" y="568" width="52" height="26" fill="#58a6ff" opacity="0.06" rx="1"/>
  <rect x="501" y="665" width="52" height="26" fill="#58a6ff" opacity="0.06" rx="1"/>
  <rect x="671" y="665" width="52" height="26" fill="#58a6ff" opacity="0.06" rx="1"/>

  <text x="527" y="584" font-size="9" fill="#58a6ff" text-anchor="middle" font-weight="bold">A</text>
  <text x="697" y="584" font-size="9" fill="#58a6ff" text-anchor="middle" font-weight="bold">B</text>
  <text x="527" y="681" font-size="9" fill="#58a6ff" text-anchor="middle" font-weight="bold">C</text>
  <text x="697" y="681" font-size="9" fill="#58a6ff" text-anchor="middle" font-weight="bold">D</text>

  <text x="612" y="624" font-size="8" fill="#3d4a6b" text-anchor="middle">GAME SPACE</text>
  <text x="612" y="636" font-size="7" fill="#2e3a50" text-anchor="middle">1fr × 1fr</text>

  <!-- legend inside D -->
  <text x="492" y="714" font-size="8" fill="#8b949e">outer-frame cols/rows: [ 24px | 1fr | 24px ]</text>
  <text x="492" y="727" font-size="8" fill="#8b949e">hud-grid   cols/rows: [ auto | 1fr | auto ]</text>
  <text x="492" y="740" font-size="8" fill="#8b949e">gap-x: 8px  ·  gap-y: 4px  ·  4 corner cells = HUD</text>
  <text x="492" y="753" font-size="8" fill="#6e7681">Centre = unbounded game render space</text>
  <line x1="492" y1="757" x2="560" y2="757" stroke="#2d5aaa" stroke-dasharray="2,3" opacity="0.7"/>
  <text x="565" y="760" font-size="7" fill="#2d5aaa">outer margin</text>
  <line x1="492" y1="768" x2="545" y2="768" stroke="#444c56" stroke-dasharray="2,3"/>
  <text x="550" y="771" font-size="7" fill="#444c56">hud-grid cells</text>

  <!-- ══════════════════════════════════════════════════════
       E. TRANSPARENCY PRINCIPLE  (760,550) w=480 h=238
  ══════════════════════════════════════════════════════ -->
  <rect x="760" y="550" width="480" height="238" fill="#161b22" rx="3" stroke="#21262d"/>
  <text x="776" y="569" font-size="10" fill="#e6edf3" font-weight="bold">Problem · Fix · Legibility</text>
  <line x1="776" y1="575" x2="1228" y2="575" stroke="#21262d"/>

  <!-- Problem -->
  <rect x="776" y="582" width="64" height="14" fill="#3d1f0a" rx="2"/>
  <text x="808" y="593" font-size="9" fill="#f0883e" text-anchor="middle" font-weight="bold">PROBLEM</text>
  <text x="848" y="593" font-size="9" fill="#8b949e">Panel widget fills with Color::DarkGrey when bg_colour is omitted.</text>
  <text x="848" y="607" font-size="9" fill="#8b949e">The 4 HUD corner panels render opaque boxes over stars + planets + game.</text>

  <!-- Fix -->
  <rect x="776" y="618" width="38" height="14" fill="#0e2a14" rx="2"/>
  <text x="795" y="629" font-size="9" fill="#3fb950" text-anchor="middle" font-weight="bold">FIX</text>
  <text x="848" y="629" font-size="9" fill="#8b949e">Change fallback in sprite_renderer.rs: Color::DarkGrey → Color::Reset.</text>
  <text x="848" y="643" font-size="9" fill="#8b949e">Skip writing interior cells when panel_bg == Color::Reset (preserve layers below).</text>
  <text x="848" y="657" font-size="9" fill="#6e7681" font-style="italic">game-over overlay uses explicit bg_colour — unaffected.</text>

  <!-- Layer ordering -->
  <rect x="776" y="668" width="82" height="14" fill="#0a1e30" rx="2"/>
  <text x="817" y="679" font-size="9" fill="#58a6ff" text-anchor="middle" font-weight="bold">LAYER ORDER</text>
  <text x="866" y="679" font-size="9" fill="#8b949e">Stars (z=0) → Planets (z=1) → Game (z=2) → HUD (z=10)</text>
  <text x="776" y="693" font-size="9" fill="#8b949e">Each plane is a separate named layer in scene.yml (ref: game/layers/*.yml).</text>
  <text x="776" y="707" font-size="9" fill="#8b949e">Planets layer: large vector circles + optional parallax offset via Rhai each frame.</text>
  <text x="776" y="721" font-size="9" fill="#8b949e">Stars layer:   small vector points or pre-placed text sprites, very slow drift.</text>

  <!-- Legibility -->
  <rect x="776" y="732" width="72" height="14" fill="#0a1e30" rx="2"/>
  <text x="812" y="743" font-size="9" fill="#58a6ff" text-anchor="middle" font-weight="bold">LEGIBILITY</text>
  <text x="856" y="743" font-size="9" fill="#8b949e">hud_value (#f6ae2d) high-contrast against all 3 dark plane tones.</text>
  <text x="776" y="757" font-size="9" fill="#8b949e">Planets are dim (#0a1230 ~4% brightness) — HUD text stays readable above them.</text>
  <text x="776" y="771" font-size="9" fill="#6e7681" font-style="italic">⚠  If planets get bright rings, add per-glyph shadow/outline to HUD labels.</text>

  <!-- ══════════════════════════════════════════════════════
       FOOTER
  ══════════════════════════════════════════════════════ -->
  <line x1="40" y1="802" x2="1240" y2="802" stroke="#21262d"/>
  <text x="40"   y="815" font-size="9" fill="#3d4a6b">shell-engine · asteroids mod · HUD design v2 · docs/layout/hud-design.svg</text>
  <text x="1240" y="815" font-size="9" fill="#3d4a6b" text-anchor="end">640×360 · 3-plane composite · halfblock terminal renderer · taffy grid</text>

</svg>
