<?xml version="1.0" encoding="UTF-8" standalone="no"?>
<svg xmlns="http://www.w3.org/2000/svg" width="2048" height="1365" viewBox="0 0 2048 1365" version="1.1">
  <title>Cogito vectorized artwork</title>
  <desc>Auto-vectorized from raster artwork with separated layers for silhouette, midtones and highlights.</desc>
  <g id="silhouette" fill="#D4213D" fill-opacity="1" fill-rule="evenodd">
    <path d="M 1494 309 L 1498 308 L 1495 307 Z"/>
    <path d="M 1402 307 L 1402 310 L 1405 312 L 1411 311 L 1411 309 L 1408 306 Z"/>
    <path d="M 1469 301 L 1467 299 L 1460 300 L 1461 302 Z"/>
    <path d="M 1432 301 L 1428 299 L 1429 301 L 1427 303 L 1426 302 L 1422 302 L 1422 303 L 1427 306 Z"/>
    <path d="M 1426 293 L 1437 302 L 1448 307 L 1446 304 L 1440 301 L 1439 299 L 1437 299 L 1429 293 Z"/>
    <path d="M 1447 290 L 1447 291 L 1457 291 L 1463 293 L 1466 292 L 1474 293 L 1475 292 L 1470 290 L 1459 290 L 1458 289 Z"/>
    <path d="M 1493 287 L 1499 288 L 1502 293 L 1505 292 L 1505 289 L 1500 286 Z"/>
    <path d="M 1493 282 L 1480 279 L 1477 280 L 1472 279 L 1458 281 L 1449 280 L 1442 281 L 1441 283 L 1488 282 L 1492 284 Z"/>
    <path d="M 1537 277 L 1544 278 L 1544 277 Z"/>
    <path d="M 1555 263 L 1552 265 L 1553 267 L 1555 266 L 1556 264 Z"/>
    <path d="M 1498 260 L 1504 262 L 1510 261 L 1519 262 L 1524 261 L 1525 259 Z"/>
    <path d="M 1497 257 L 1494 257 L 1492 259 L 1486 258 L 1480 260 L 1470 259 L 1462 261 L 1461 260 L 1451 261 L 1446 264 L 1458 264 L 1464 262 L 1482 262 L 1487 259 L 1493 260 L 1494 258 L 1497 258 Z"/>
    <path d="M 1463 249 L 1461 247 L 1460 249 L 1454 249 L 1450 253 L 1460 252 Z"/>
    <path d="M 1445 245 L 1443 244 L 1439 249 L 1428 258 L 1428 262 L 1429 259 L 1437 254 Z"/>
    <path d="M 1422 232 L 1421 232 L 1421 240 L 1418 246 L 1418 249 L 1414 254 L 1414 257 L 1417 260 L 1421 258 L 1423 250 Z"/>
    <path d="M 1490 231 L 1493 231 L 1495 228 L 1491 228 Z"/>
    <path d="M 1466 206 L 1465 208 L 1469 209 L 1469 206 Z"/>
    <path d="M 1011 182 L 1006 185 L 1005 188 L 1009 194 L 1013 195 L 1018 193 L 1019 189 L 1016 183 Z"/>
    <path d="M 993 179 L 986 180 L 985 189 L 989 193 L 992 193 L 998 189 L 998 182 Z"/>
    <path d="M 1037 169 L 1034 172 L 1034 177 L 1039 179 L 1042 178 L 1044 176 L 1044 172 L 1041 169 Z"/>
    <path d="M 1002 162 L 999 165 L 999 170 L 1001 172 L 1009 172 L 1011 170 L 1010 164 L 1008 162 Z"/>
    <path d="M 982 151 L 979 155 L 981 163 L 986 164 L 992 163 L 993 159 L 992 153 L 987 150 Z"/>
    <path d="M 885 150 L 870 160 L 860 170 L 854 180 L 850 193 L 851 209 L 857 220 L 857 225 L 853 232 L 854 250 L 858 258 L 861 261 L 867 263 L 879 272 L 877 275 L 877 278 L 868 289 L 851 301 L 843 303 L 841 305 L 833 306 L 827 309 L 823 309 L 813 313 L 806 314 L 798 318 L 794 322 L 790 333 L 790 353 L 795 374 L 797 377 L 798 384 L 801 389 L 802 396 L 805 401 L 806 406 L 813 418 L 813 428 L 829 466 L 829 469 L 837 490 L 838 498 L 841 505 L 840 515 L 841 525 L 845 529 L 848 530 L 845 533 L 841 534 L 837 539 L 838 546 L 834 554 L 829 573 L 827 575 L 825 585 L 818 603 L 817 610 L 814 616 L 813 623 L 810 629 L 809 636 L 806 642 L 805 649 L 803 652 L 801 663 L 798 670 L 798 677 L 811 682 L 815 686 L 820 687 L 810 706 L 811 709 L 810 715 L 807 720 L 805 728 L 802 733 L 801 740 L 798 745 L 797 753 L 794 759 L 793 767 L 791 770 L 789 782 L 786 788 L 785 797 L 783 801 L 783 805 L 785 809 L 781 813 L 777 821 L 777 824 L 767 842 L 767 847 L 769 849 L 775 850 L 745 874 L 743 878 L 742 891 L 722 923 L 714 939 L 713 944 L 710 948 L 705 964 L 702 968 L 701 975 L 698 980 L 697 987 L 694 993 L 686 1022 L 682 1030 L 674 1037 L 671 1043 L 670 1054 L 671 1062 L 673 1066 L 673 1073 L 666 1077 L 658 1085 L 649 1100 L 648 1109 L 652 1113 L 657 1114 L 659 1116 L 664 1116 L 665 1118 L 654 1132 L 653 1136 L 649 1141 L 642 1155 L 625 1170 L 622 1170 L 616 1173 L 609 1181 L 605 1190 L 605 1195 L 606 1197 L 629 1201 L 663 1200 L 669 1198 L 686 1197 L 693 1191 L 702 1192 L 711 1190 L 714 1187 L 715 1183 L 714 1168 L 716 1157 L 715 1150 L 711 1143 L 711 1133 L 714 1127 L 717 1124 L 732 1125 L 737 1120 L 754 1075 L 773 1032 L 777 1026 L 778 1021 L 801 975 L 805 970 L 806 966 L 809 963 L 818 946 L 829 930 L 830 926 L 833 923 L 856 884 L 858 875 L 860 873 L 862 863 L 874 839 L 881 830 L 902 794 L 914 777 L 914 775 L 917 773 L 922 763 L 930 753 L 950 722 L 955 717 L 989 753 L 1012 781 L 1049 830 L 1062 845 L 1069 851 L 1069 857 L 1067 861 L 1069 868 L 1076 877 L 1089 886 L 1088 892 L 1089 904 L 1095 915 L 1097 912 L 1096 905 L 1097 891 L 1100 883 L 1101 884 L 1101 900 L 1100 901 L 1101 930 L 1115 976 L 1158 1086 L 1165 1100 L 1170 1115 L 1173 1119 L 1178 1135 L 1181 1138 L 1189 1140 L 1192 1147 L 1192 1152 L 1187 1167 L 1187 1185 L 1189 1189 L 1193 1192 L 1202 1194 L 1215 1193 L 1220 1190 L 1226 1190 L 1233 1197 L 1246 1201 L 1259 1201 L 1260 1202 L 1268 1201 L 1269 1202 L 1270 1201 L 1299 1201 L 1304 1199 L 1310 1199 L 1312 1197 L 1312 1191 L 1305 1180 L 1291 1173 L 1288 1170 L 1283 1169 L 1281 1166 L 1277 1164 L 1267 1150 L 1262 1146 L 1261 1143 L 1262 1137 L 1259 1130 L 1246 1120 L 1246 1118 L 1253 1112 L 1256 1105 L 1241 1089 L 1234 1078 L 1232 1068 L 1230 1065 L 1231 1062 L 1242 1077 L 1245 1076 L 1242 1072 L 1241 1066 L 1238 1061 L 1238 1057 L 1234 1048 L 1233 1041 L 1226 1023 L 1221 1003 L 1201 947 L 1194 935 L 1193 930 L 1182 908 L 1172 876 L 1166 864 L 1157 839 L 1154 835 L 1153 830 L 1145 817 L 1129 799 L 1132 795 L 1128 781 L 1126 779 L 1124 771 L 1118 759 L 1117 753 L 1106 728 L 1104 720 L 1102 718 L 1101 712 L 1098 708 L 1097 702 L 1084 677 L 1089 673 L 1094 664 L 1099 658 L 1098 652 L 1073 612 L 1073 610 L 1070 607 L 1061 590 L 1058 587 L 1057 583 L 1054 580 L 1053 576 L 1041 555 L 1042 553 L 1063 578 L 1066 579 L 1061 565 L 1058 561 L 1058 558 L 1050 543 L 1049 538 L 1046 534 L 1041 521 L 1038 517 L 1037 512 L 1030 500 L 1030 497 L 1026 490 L 1025 485 L 1022 481 L 1002 434 L 1003 433 L 1013 447 L 1013 449 L 1025 466 L 1026 470 L 1033 480 L 1041 496 L 1043 496 L 1041 476 L 1042 475 L 1042 444 L 1044 435 L 1045 407 L 1105 401 L 1118 392 L 1125 382 L 1124 375 L 1135 362 L 1138 380 L 1146 393 L 1160 401 L 1176 402 L 1185 398 L 1189 394 L 1192 387 L 1190 382 L 1180 381 L 1175 385 L 1168 386 L 1164 385 L 1157 379 L 1153 370 L 1153 364 L 1155 361 L 1160 361 L 1161 363 L 1171 368 L 1187 369 L 1201 361 L 1206 354 L 1212 349 L 1238 350 L 1258 340 L 1264 334 L 1270 333 L 1276 330 L 1302 324 L 1304 322 L 1313 321 L 1318 318 L 1330 316 L 1332 314 L 1358 308 L 1360 306 L 1364 306 L 1375 302 L 1384 301 L 1391 298 L 1402 296 L 1412 290 L 1420 289 L 1430 285 L 1432 282 L 1432 277 L 1435 274 L 1469 274 L 1497 270 L 1529 269 L 1533 267 L 1544 266 L 1544 265 L 1519 266 L 1518 267 L 1493 267 L 1469 270 L 1446 270 L 1439 272 L 1432 272 L 1430 270 L 1423 270 L 1408 267 L 1407 268 L 1366 269 L 1365 270 L 1311 271 L 1302 273 L 1300 272 L 1298 273 L 1272 273 L 1271 274 L 1268 273 L 1259 274 L 1251 278 L 1248 281 L 1242 281 L 1233 278 L 1216 278 L 1211 281 L 1204 282 L 1192 289 L 1180 293 L 1168 293 L 1167 294 L 1145 295 L 1140 297 L 1117 298 L 1113 300 L 1112 299 L 1108 301 L 1096 303 L 1093 305 L 1083 305 L 1062 302 L 1055 299 L 1045 297 L 1040 294 L 1035 293 L 1030 288 L 1029 284 L 1019 278 L 1003 278 L 995 281 L 991 281 L 979 286 L 969 286 L 955 278 L 948 271 L 953 268 L 968 263 L 972 257 L 972 251 L 969 244 L 969 233 L 972 228 L 972 224 L 969 220 L 969 217 L 974 216 L 977 213 L 978 206 L 977 203 L 971 198 L 967 197 L 966 194 L 961 189 L 958 189 L 952 185 L 951 171 L 957 169 L 966 170 L 968 181 L 975 183 L 980 182 L 983 178 L 982 169 L 977 168 L 969 169 L 967 167 L 966 157 L 961 154 L 959 150 L 955 151 L 952 154 L 947 151 L 933 150 L 921 145 L 902 145 Z M 1100 882 L 1101 881 L 1102 883 L 1101 884 Z M 1161 867 L 1162 868 L 1161 872 L 1160 871 Z M 1158 856 L 1161 861 L 1160 868 L 1157 859 Z M 1156 852 L 1158 854 L 1157 857 L 1155 854 Z M 1154 851 L 1155 850 L 1156 852 L 1155 853 Z"/>
    <path d="M 1019 143 L 1015 145 L 1017 148 L 1020 146 Z"/>
  </g>
  <g id="midtones" fill="#7a1224" fill-opacity="0.55" fill-rule="evenodd">
    <path d="M 627 1170 L 627 1171 L 630 1171 L 630 1169 Z"/>
    <path d="M 1249 1166 L 1249 1167 L 1254 1167 L 1254 1166 Z"/>
    <path d="M 1267 1164 L 1271 1162 L 1268 1162 Z"/>
    <path d="M 643 1157 L 639 1160 L 642 1160 Z"/>
    <path d="M 1193 1155 L 1192 1155 L 1191 1162 L 1193 1159 Z"/>
    <path d="M 1242 1159 L 1247 1159 L 1246 1157 L 1249 1155 L 1253 1156 L 1254 1155 L 1264 1155 L 1263 1153 L 1259 1154 L 1251 1153 L 1242 1157 Z"/>
    <path d="M 1239 1147 L 1239 1148 L 1241 1147 L 1242 1148 L 1253 1148 L 1251 1146 Z"/>
    <path d="M 710 1142 L 710 1145 L 713 1147 L 712 1142 Z"/>
    <path d="M 659 1142 L 658 1142 L 658 1145 L 654 1147 L 657 1147 L 659 1145 Z"/>
    <path d="M 1252 1140 L 1250 1140 L 1249 1142 Z"/>
    <path d="M 1237 1140 L 1239 1142 L 1246 1142 L 1246 1141 L 1239 1141 L 1238 1140 L 1240 1138 Z"/>
    <path d="M 705 1133 L 708 1135 L 707 1133 Z"/>
    <path d="M 1061 661 L 1053 662 L 1053 663 L 1061 663 Z"/>
    <path d="M 1162 393 L 1162 394 L 1171 394 L 1171 393 Z"/>
    <path d="M 1182 386 L 1180 386 L 1178 390 Z"/>
    <path d="M 1072 382 L 1073 385 L 1075 386 L 1077 385 L 1076 382 L 1074 384 Z"/>
    <path d="M 1107 381 L 1107 383 L 1112 384 Z"/>
    <path d="M 1151 379 L 1149 382 L 1151 381 Z"/>
    <path d="M 1117 374 L 1117 375 L 1126 375 L 1126 374 Z"/>
    <path d="M 924 374 L 922 374 L 917 380 L 921 378 Z"/>
    <path d="M 959 371 L 958 371 L 957 376 L 960 373 Z"/>
    <path d="M 1147 369 L 1146 376 L 1148 375 L 1149 376 L 1147 378 L 1148 379 L 1150 376 L 1147 373 L 1148 372 L 1148 369 Z"/>
    <path d="M 988 370 L 986 369 L 985 372 Z"/>
    <path d="M 1093 364 L 1097 371 L 1100 370 Z"/>
    <path d="M 1090 360 L 1090 365 L 1091 365 L 1091 360 Z"/>
    <path d="M 978 351 L 976 353 L 972 353 L 970 356 L 978 353 Z"/>
    <path d="M 857 350 L 854 350 L 850 354 L 856 352 Z"/>
    <path d="M 1113 346 L 1113 355 L 1114 355 L 1114 346 Z"/>
    <path d="M 1091 346 L 1091 353 L 1092 353 L 1092 346 Z"/>
    <path d="M 876 346 L 876 347 L 880 347 L 880 346 Z"/>
    <path d="M 1037 342 L 1037 343 L 1041 343 L 1041 342 Z"/>
    <path d="M 870 343 L 875 342 L 875 341 L 871 341 Z"/>
    <path d="M 1175 337 L 1175 338 L 1181 338 L 1181 337 Z"/>
    <path d="M 1161 336 L 1161 338 L 1165 338 Z"/>
    <path d="M 1081 336 L 1084 336 L 1086 334 L 1082 334 Z"/>
    <path d="M 1229 333 L 1233 335 Z"/>
    <path d="M 862 334 L 862 335 L 869 336 L 869 335 L 866 335 L 865 333 Z"/>
    <path d="M 951 332 L 951 337 L 952 337 L 952 332 Z"/>
    <path d="M 1185 331 L 1187 335 L 1188 332 Z"/>
    <path d="M 1117 329 L 1117 331 L 1119 332 L 1119 330 Z"/>
    <path d="M 1249 326 L 1253 328 Z"/>
    <path d="M 1176 325 L 1177 327 L 1180 327 L 1183 329 L 1185 325 L 1183 326 Z"/>
    <path d="M 1122 325 L 1122 327 L 1125 327 L 1124 325 Z"/>
    <path d="M 828 323 L 826 326 L 829 327 L 829 323 Z"/>
    <path d="M 1234 313 L 1230 315 L 1230 318 Z"/>
    <path d="M 1081 313 L 1079 313 L 1078 315 L 1080 315 Z"/>
    <path d="M 1139 310 L 1133 316 Z"/>
    <path d="M 919 307 L 916 313 L 920 310 L 921 311 L 921 322 L 922 322 L 922 311 L 920 310 L 920 307 Z"/>
    <path d="M 1206 305 L 1203 307 L 1206 307 Z"/>
    <path d="M 943 305 L 940 307 L 942 307 Z"/>
    <path d="M 931 305 L 931 307 L 935 306 L 935 305 Z"/>
    <path d="M 1158 303 L 1155 305 L 1154 308 Z"/>
    <path d="M 1063 303 L 1063 304 L 1069 304 L 1070 306 L 1080 308 L 1087 307 L 1083 305 Z"/>
    <path d="M 913 303 L 913 306 L 915 308 L 914 303 Z"/>
    <path d="M 1469 301 L 1462 302 L 1462 303 L 1468 303 Z"/>
    <path d="M 1295 301 L 1284 302 L 1276 305 L 1264 307 L 1264 308 L 1278 306 L 1283 304 L 1296 303 Z"/>
    <path d="M 1114 301 L 1110 301 L 1109 305 L 1107 305 L 1106 303 L 1098 304 L 1097 307 L 1089 306 L 1089 308 L 1093 307 L 1099 308 L 1100 306 L 1102 308 L 1104 305 L 1105 307 L 1109 307 Z"/>
    <path d="M 1299 300 L 1299 302 L 1303 302 L 1301 299 Z"/>
    <path d="M 1185 298 L 1185 299 L 1190 299 L 1190 298 Z"/>
    <path d="M 1039 298 L 1039 299 L 1051 300 L 1048 298 Z"/>
    <path d="M 1313 297 L 1310 298 L 1310 300 L 1312 300 Z"/>
    <path d="M 1428 294 L 1434 300 L 1436 299 Z"/>
    <path d="M 1280 294 L 1280 295 L 1284 295 L 1284 294 Z"/>
    <path d="M 1251 293 L 1252 296 L 1256 295 L 1257 297 L 1259 295 L 1269 294 L 1270 296 L 1274 295 L 1274 293 Z"/>
    <path d="M 1246 293 L 1242 294 L 1242 298 L 1246 297 Z"/>
    <path d="M 1463 291 L 1463 293 L 1473 294 L 1475 293 L 1475 292 Z"/>
    <path d="M 1286 291 L 1286 292 L 1292 292 L 1293 294 L 1298 294 L 1298 293 L 1295 293 L 1294 291 Z"/>
    <path d="M 1031 291 L 1034 296 L 1036 295 L 1040 296 L 1034 293 L 1033 291 Z"/>
    <path d="M 1356 289 L 1354 289 L 1354 292 L 1356 291 Z"/>
    <path d="M 1495 287 L 1495 288 L 1499 288 L 1502 291 L 1504 290 L 1501 287 Z"/>
    <path d="M 1211 287 L 1209 287 L 1206 291 Z"/>
    <path d="M 1399 286 L 1399 288 L 1402 287 L 1402 286 Z"/>
    <path d="M 1349 286 L 1332 287 L 1325 289 L 1302 290 L 1301 293 L 1329 290 L 1333 288 L 1344 288 L 1349 287 Z"/>
    <path d="M 1025 285 L 1027 287 L 1031 287 L 1031 286 Z"/>
    <path d="M 1388 284 L 1374 286 L 1374 288 L 1387 286 Z"/>
    <path d="M 1292 283 L 1292 284 L 1296 284 L 1296 283 Z"/>
    <path d="M 1443 282 L 1443 284 L 1447 284 L 1446 282 Z"/>
    <path d="M 1309 282 L 1309 283 L 1313 283 L 1313 282 Z"/>
    <path d="M 1480 281 L 1481 283 L 1485 282 L 1493 284 L 1490 282 Z"/>
    <path d="M 1260 280 L 1260 281 L 1266 281 L 1266 280 Z"/>
    <path d="M 1253 280 L 1249 282 L 1243 282 L 1243 283 L 1251 284 Z"/>
    <path d="M 1281 279 L 1281 280 L 1285 280 L 1285 279 Z"/>
    <path d="M 1539 278 L 1539 279 L 1545 279 L 1545 278 Z"/>
    <path d="M 1306 278 L 1306 279 L 1316 279 L 1316 278 Z"/>
    <path d="M 1375 277 L 1375 278 L 1380 278 L 1380 277 Z"/>
    <path d="M 1336 277 L 1336 278 L 1342 278 L 1342 277 Z"/>
    <path d="M 1398 275 L 1398 277 L 1401 277 L 1401 275 Z"/>
    <path d="M 1391 275 L 1391 277 L 1393 277 L 1393 275 Z"/>
    <path d="M 1361 275 L 1361 276 L 1370 276 L 1370 275 Z"/>
    <path d="M 1433 273 L 1434 276 L 1442 275 L 1441 273 Z"/>
    <path d="M 1448 271 L 1448 272 L 1453 272 L 1453 271 Z"/>
    <path d="M 882 269 L 882 274 L 883 274 L 883 269 Z"/>
    <path d="M 1521 267 L 1522 270 L 1530 270 L 1537 268 L 1537 267 L 1527 268 Z"/>
    <path d="M 1556 265 L 1553 267 L 1555 268 Z"/>
    <path d="M 881 264 L 881 267 L 882 267 L 883 265 Z"/>
    <path d="M 1517 261 L 1517 262 L 1525 262 L 1525 261 Z"/>
    <path d="M 1501 261 L 1505 263 L 1515 262 L 1515 261 L 1507 260 Z"/>
    <path d="M 1487 260 L 1483 260 L 1480 263 L 1483 263 Z"/>
    <path d="M 1433 257 L 1431 257 L 1429 261 Z"/>
    <path d="M 1445 246 L 1441 250 L 1443 250 Z"/>
    <path d="M 940 179 L 943 181 L 943 184 L 944 184 L 944 181 Z"/>
  </g>
  <g id="highlights" fill="#ffffff" fill-opacity="1" fill-rule="evenodd">
    <path d="M 1290 1182 L 1290 1183 L 1296 1185 L 1300 1183 L 1300 1182 L 1297 1180 L 1292 1180 Z"/>
    <path d="M 1289 1176 L 1285 1174 L 1279 1173 L 1275 1175 L 1266 1177 L 1284 1177 L 1285 1176 Z"/>
    <path d="M 631 1170 L 651 1170 L 652 1171 L 656 1171 L 654 1171 L 653 1169 L 648 1167 L 636 1167 Z"/>
    <path d="M 677 1170 L 679 1170 L 684 1173 L 689 1173 L 690 1172 L 690 1169 L 683 1164 L 681 1165 Z"/>
    <path d="M 1267 1162 L 1265 1161 L 1260 1161 L 1256 1163 L 1248 1164 L 1248 1165 L 1259 1165 L 1260 1164 L 1265 1164 Z"/>
    <path d="M 1194 1156 L 1193 1163 L 1196 1165 L 1200 1164 L 1201 1163 L 1200 1160 L 1197 1157 Z M 1196 1161 L 1198 1160 L 1199 1162 L 1197 1163 Z"/>
    <path d="M 698 1149 L 706 1150 L 705 1148 L 699 1148 Z"/>
    <path d="M 698 1135 L 700 1136 L 706 1136 L 706 1135 L 703 1133 L 701 1133 Z"/>
    <path d="M 1252 1128 L 1250 1128 L 1246 1125 L 1237 1125 L 1229 1128 L 1220 1129 L 1246 1129 L 1247 1128 L 1252 1129 Z"/>
    <path d="M 1067 680 L 1076 680 L 1087 684 L 1085 683 L 1085 680 L 1084 679 L 1081 679 L 1077 677 L 1074 677 L 1072 679 Z"/>
    <path d="M 1062 662 L 1064 664 L 1072 665 L 1076 668 L 1078 668 L 1081 671 L 1085 672 L 1084 667 L 1079 663 L 1076 663 L 1073 661 Z"/>
    <path d="M 1060 388 L 1059 387 L 1056 387 L 1051 390 L 1059 390 Z"/>
    <path d="M 1072 384 L 1066 385 L 1065 386 L 1065 389 L 1071 386 Z"/>
    <path d="M 1151 382 L 1153 386 L 1157 390 L 1159 390 L 1161 392 L 1173 392 L 1174 391 L 1162 391 L 1158 389 Z"/>
    <path d="M 1042 343 L 1041 344 L 1031 344 L 1025 347 L 1020 347 L 1015 349 L 1004 349 L 999 351 L 994 351 L 988 353 L 983 357 L 980 358 L 978 357 L 980 354 L 979 353 L 970 357 L 966 360 L 961 366 L 960 371 L 968 364 L 970 361 L 972 361 L 975 358 L 985 357 L 991 354 L 998 353 L 999 355 L 996 357 L 988 368 L 988 369 L 989 369 L 993 365 L 1001 361 L 1004 358 L 1010 356 L 1012 354 L 1017 353 L 1021 350 L 1029 348 L 1034 345 L 1041 344 Z"/>
    <path d="M 1138 328 L 1133 329 L 1125 338 L 1121 352 L 1122 359 L 1124 356 L 1125 351 L 1130 345 L 1133 339 L 1133 336 Z"/>
    <path d="M 1121 327 L 1115 329 L 1111 329 L 1108 331 L 1097 331 L 1087 334 L 1093 332 L 1096 332 L 1097 333 L 1093 341 L 1093 353 L 1091 357 L 1092 367 L 1095 372 L 1105 381 L 1106 381 L 1103 379 L 1096 371 L 1092 364 L 1094 363 L 1099 368 L 1104 370 L 1108 370 L 1116 373 L 1122 373 L 1119 372 L 1115 367 L 1113 362 L 1113 356 L 1112 355 L 1113 340 L 1117 333 L 1116 329 L 1117 328 L 1120 329 Z"/>
    <path d="M 830 324 L 830 326 L 839 326 L 845 329 L 856 330 L 863 333 L 857 329 L 849 328 L 843 325 Z"/>
    <path d="M 1218 316 L 1217 317 L 1217 320 L 1221 325 L 1222 328 L 1226 332 L 1230 332 L 1231 333 L 1222 316 Z"/>
    <path d="M 1232 316 L 1232 320 L 1235 325 L 1235 328 L 1245 332 L 1245 329 L 1242 325 L 1239 317 L 1236 314 Z"/>
    <path d="M 1246 313 L 1245 314 L 1248 318 L 1249 325 L 1258 328 L 1258 325 L 1253 316 L 1249 313 Z"/>
    <path d="M 1069 305 L 1055 305 L 1052 307 L 1047 308 L 1044 311 L 1041 312 L 1048 309 L 1059 308 L 1063 306 Z"/>
    <path d="M 1158 301 L 1155 303 L 1149 304 L 1141 309 L 1133 319 L 1127 325 L 1125 325 L 1127 326 L 1142 321 L 1148 315 L 1154 305 L 1156 304 Z"/>
    <path d="M 1204 305 L 1198 301 L 1195 301 L 1194 300 L 1183 300 L 1180 301 L 1170 309 L 1159 321 L 1151 325 L 1147 330 L 1144 332 L 1141 338 L 1142 337 L 1151 337 L 1155 340 L 1159 340 L 1165 342 L 1175 348 L 1172 344 L 1169 343 L 1166 340 L 1161 339 L 1160 336 L 1163 335 L 1164 336 L 1181 336 L 1182 337 L 1186 337 L 1184 331 L 1180 328 L 1177 328 L 1175 326 L 1176 324 L 1179 325 L 1185 324 L 1191 326 L 1197 326 L 1200 328 L 1210 330 L 1208 324 L 1207 324 L 1204 320 L 1200 317 L 1198 317 L 1189 312 L 1186 312 L 1185 311 L 1185 308 L 1188 305 Z"/>
    <path d="M 1331 295 L 1321 296 L 1314 298 Z"/>
    <path d="M 1353 291 L 1335 294 Z"/>
    <path d="M 1044 297 L 1043 296 L 1042 297 L 1039 297 L 1038 296 L 1034 297 L 1028 290 L 1028 288 L 1025 287 L 1023 292 L 1020 295 L 1019 300 L 1016 305 L 1015 309 L 1023 302 L 1027 301 L 1032 298 Z"/>
    <path d="M 1208 290 L 1221 297 L 1241 297 L 1241 294 L 1243 293 L 1238 292 L 1234 289 L 1228 287 L 1226 285 L 1219 285 Z"/>
    <path d="M 1390 276 L 1353 277 L 1352 278 L 1343 278 L 1342 279 L 1286 280 L 1285 281 L 1267 281 L 1266 282 L 1258 282 L 1257 281 L 1252 283 L 1258 285 L 1274 285 L 1275 284 L 1288 284 L 1292 282 L 1326 281 L 1327 280 L 1338 280 L 1344 278 Z"/>
    <path d="M 883 267 L 884 269 L 884 275 L 887 280 L 889 289 L 891 291 L 897 309 L 899 311 L 905 329 L 907 331 L 909 339 L 912 343 L 912 346 L 909 347 L 906 345 L 892 343 L 889 341 L 876 339 L 873 337 L 852 336 L 851 337 L 868 338 L 871 340 L 875 340 L 876 341 L 875 343 L 868 344 L 858 350 L 863 348 L 867 348 L 870 346 L 887 345 L 888 346 L 891 346 L 896 349 L 902 350 L 906 353 L 912 354 L 915 356 L 939 357 L 940 359 L 924 373 L 931 369 L 933 369 L 936 366 L 941 365 L 947 361 L 952 360 L 954 358 L 961 356 L 965 356 L 967 354 L 970 354 L 972 352 L 976 352 L 976 351 L 962 351 L 961 352 L 955 352 L 954 353 L 946 354 L 941 352 L 925 351 L 922 350 L 919 347 L 919 341 L 920 340 L 920 311 L 916 314 L 915 311 L 918 309 L 914 309 L 912 306 L 912 303 L 916 298 L 920 297 L 924 294 L 930 294 L 932 296 L 936 297 L 943 303 L 944 306 L 942 308 L 933 307 L 935 310 L 936 316 L 939 320 L 939 323 L 941 326 L 941 328 L 951 341 L 949 319 L 950 318 L 950 301 L 952 296 L 952 286 L 950 283 L 950 279 L 947 279 L 943 284 L 932 291 L 925 292 L 924 291 L 920 291 L 917 289 L 914 289 L 903 283 Z"/>
    <path d="M 940 204 L 940 205 L 945 206 L 945 204 L 943 203 Z"/>
    <path d="M 943 180 L 942 181 L 939 181 L 937 183 L 937 185 L 943 186 L 942 184 L 942 181 Z"/>
  </g>
</svg>
