<svg xmlns="http://www.w3.org/2000/svg" viewBox="0 0 920 560" width="920" height="560">
<rect width="920" height="560" fill="#060616"/>
<line x1="0" y1="0" x2="0" y2="560" stroke="#0c1424" stroke-width="0.5"/>
<line x1="40" y1="0" x2="40" y2="560" stroke="#0c1424" stroke-width="0.5"/>
<line x1="80" y1="0" x2="80" y2="560" stroke="#0c1424" stroke-width="0.5"/>
<line x1="120" y1="0" x2="120" y2="560" stroke="#0c1424" stroke-width="0.5"/>
<line x1="160" y1="0" x2="160" y2="560" stroke="#0c1424" stroke-width="0.5"/>
<line x1="200" y1="0" x2="200" y2="560" stroke="#0c1424" stroke-width="0.5"/>
<line x1="240" y1="0" x2="240" y2="560" stroke="#0c1424" stroke-width="0.5"/>
<line x1="280" y1="0" x2="280" y2="560" stroke="#0c1424" stroke-width="0.5"/>
<line x1="320" y1="0" x2="320" y2="560" stroke="#0c1424" stroke-width="0.5"/>
<line x1="360" y1="0" x2="360" y2="560" stroke="#0c1424" stroke-width="0.5"/>
<line x1="400" y1="0" x2="400" y2="560" stroke="#0c1424" stroke-width="0.5"/>
<line x1="440" y1="0" x2="440" y2="560" stroke="#0c1424" stroke-width="0.5"/>
<line x1="480" y1="0" x2="480" y2="560" stroke="#0c1424" stroke-width="0.5"/>
<line x1="520" y1="0" x2="520" y2="560" stroke="#0c1424" stroke-width="0.5"/>
<line x1="560" y1="0" x2="560" y2="560" stroke="#0c1424" stroke-width="0.5"/>
<line x1="600" y1="0" x2="600" y2="560" stroke="#0c1424" stroke-width="0.5"/>
<line x1="640" y1="0" x2="640" y2="560" stroke="#0c1424" stroke-width="0.5"/>
<line x1="680" y1="0" x2="680" y2="560" stroke="#0c1424" stroke-width="0.5"/>
<line x1="720" y1="0" x2="720" y2="560" stroke="#0c1424" stroke-width="0.5"/>
<line x1="760" y1="0" x2="760" y2="560" stroke="#0c1424" stroke-width="0.5"/>
<line x1="800" y1="0" x2="800" y2="560" stroke="#0c1424" stroke-width="0.5"/>
<line x1="840" y1="0" x2="840" y2="560" stroke="#0c1424" stroke-width="0.5"/>
<line x1="880" y1="0" x2="880" y2="560" stroke="#0c1424" stroke-width="0.5"/>
<line x1="920" y1="0" x2="920" y2="560" stroke="#0c1424" stroke-width="0.5"/>
<line x1="0" y1="0" x2="920" y2="0" stroke="#0c1424" stroke-width="0.5"/>
<line x1="0" y1="40" x2="920" y2="40" stroke="#0c1424" stroke-width="0.5"/>
<line x1="0" y1="80" x2="920" y2="80" stroke="#0c1424" stroke-width="0.5"/>
<line x1="0" y1="120" x2="920" y2="120" stroke="#0c1424" stroke-width="0.5"/>
<line x1="0" y1="160" x2="920" y2="160" stroke="#0c1424" stroke-width="0.5"/>
<line x1="0" y1="200" x2="920" y2="200" stroke="#0c1424" stroke-width="0.5"/>
<line x1="0" y1="240" x2="920" y2="240" stroke="#0c1424" stroke-width="0.5"/>
<line x1="0" y1="280" x2="920" y2="280" stroke="#0c1424" stroke-width="0.5"/>
<line x1="0" y1="320" x2="920" y2="320" stroke="#0c1424" stroke-width="0.5"/>
<line x1="0" y1="360" x2="920" y2="360" stroke="#0c1424" stroke-width="0.5"/>
<line x1="0" y1="400" x2="920" y2="400" stroke="#0c1424" stroke-width="0.5"/>
<line x1="0" y1="440" x2="920" y2="440" stroke="#0c1424" stroke-width="0.5"/>
<line x1="0" y1="480" x2="920" y2="480" stroke="#0c1424" stroke-width="0.5"/>
<line x1="0" y1="520" x2="920" y2="520" stroke="#0c1424" stroke-width="0.5"/>
<line x1="0" y1="560" x2="920" y2="560" stroke="#0c1424" stroke-width="0.5"/>
<rect x="0" y="0" width="920" height="48" fill="#050d1e"/>
<text x="460" y="21" fill="#5bc0be" font-family="monospace" font-size="13" text-anchor="middle" letter-spacing="4" font-weight="bold">SHIP MODEL — LOW POLY 3D DESIGN</text>
<text x="460" y="39" fill="#3a5070" font-family="monospace" font-size="9" text-anchor="middle" letter-spacing="2">hull extrusion + canopy · surface-mode: material · asteroids/assets/3d/ship.obj</text>
<line x1="305" y1="48" x2="305" y2="560" stroke="#162844" stroke-width="1"/>
<line x1="615" y1="48" x2="615" y2="560" stroke="#162844" stroke-width="1"/>
<text x="152" y="66" fill="#3a5070" font-family="monospace" font-size="10" text-anchor="middle" letter-spacing="3">TOP VIEW</text>
<text x="460" y="66" fill="#3a5070" font-family="monospace" font-size="10" text-anchor="middle" letter-spacing="3">SIDE PROFILE</text>
<text x="760" y="66" fill="#3a5070" font-family="monospace" font-size="10" text-anchor="middle" letter-spacing="3">3/4 PERSPECTIVE</text>
<line x1="152" y1="80" x2="152" y2="520" stroke="#0f1e35" stroke-width="1" stroke-dasharray="4,4"/>
<polygon points="26.0,376.0 152.0,142.0 278.0,376.0 197.0,349.0 152.0,304.0 107.0,349.0" fill="#111c38" stroke="#2e5eaa" stroke-width="1.5" stroke-linejoin="round"/>
<polygon points="152.0,223.0 188.0,304.0 152.0,340.0 116.0,304.0" fill="#0c1e3a" stroke="#5bc0be" stroke-width="1" stroke-dasharray="4,3" fill-opacity="0.85"/>
<circle cx="26.0" cy="376.0" r="2.5" fill="#2e5eaa"/>
<circle cx="152.0" cy="142.0" r="3.5" fill="#f6ae2d"/>
<circle cx="278.0" cy="376.0" r="2.5" fill="#2e5eaa"/>
<circle cx="197.0" cy="349.0" r="2.5" fill="#2e5eaa"/>
<circle cx="152.0" cy="304.0" r="2.5" fill="#2e5eaa"/>
<circle cx="107.0" cy="349.0" r="2.5" fill="#2e5eaa"/>
<text x="152" y="130" fill="#f6ae2d" font-family="monospace" font-size="9" text-anchor="middle">NOSE</text>
<text x="292" y="381" fill="#3a5070" font-family="monospace" font-size="8">WING R</text>
<text x="12" y="381" fill="#3a5070" font-family="monospace" font-size="8" text-anchor="end">WING L</text>
<text x="158" y="296" fill="#5bc0be" font-family="monospace" font-size="8">CANOPY</text>
<line x1="26" y1="400" x2="278" y2="400" stroke="#162844" stroke-width="0.8"/>
<line x1="26" y1="396" x2="26" y2="404" stroke="#162844" stroke-width="0.8"/>
<line x1="278" y1="396" x2="278" y2="404" stroke="#162844" stroke-width="0.8"/>
<text x="152" y="413" fill="#162844" font-family="monospace" font-size="8" text-anchor="middle">28u wide · 26u tall</text>
<polygon points="579.0,295.0 579.0,283.3 495.0,283.3 397.0,283.3 397.0,302.2 579.0,302.2" fill="#111c38" stroke="#2e5eaa" stroke-width="1.5" stroke-linejoin="round"/>
<path d="M 495.0,283.3 Q 453.0,256.3 411.0,283.3" fill="none" stroke="#5bc0be" stroke-width="2.5"/>
<path d="M 495.0,283.3 Q 453.0,256.3 411.0,283.3 L 495.0,283.3 Z" fill="#0c2040" fill-opacity="0.75" stroke="none"/>
<circle cx="579.0" cy="295.0" r="3" fill="#f6ae2d"/>
<text x="567" y="299" fill="#f6ae2d" font-family="monospace" font-size="9" text-anchor="end">NOSE</text>
<text x="409" y="287.3" fill="#3a5070" font-family="monospace" font-size="9">REAR</text>
<text x="453.0" y="246.3" fill="#5bc0be" font-family="monospace" font-size="9" text-anchor="middle">CANOPY</text>
<line x1="427" y1="283.3" x2="427" y2="302.2" stroke="#162844" stroke-width="0.8"/>
<line x1="423" y1="283.3" x2="427" y2="283.3" stroke="#162844" stroke-width="0.8"/>
<line x1="423" y1="302.2" x2="427" y2="302.2" stroke="#162844" stroke-width="0.8"/>
<text x="431" y="295.8" fill="#162844" font-family="monospace" font-size="7">0.21u</text>
<line x1="497" y1="283.3" x2="497" y2="256.3" stroke="#3a5070" stroke-width="0.6" stroke-dasharray="2,2"/>
<text x="501" y="272.8" fill="#3a5070" font-family="monospace" font-size="7">canopy h</text>
<polygon points="683.0,359.5 760.0,216.5 837.0,359.5 787.5,343.0 760.0,315.5 732.5,343.0" fill="#070e1e" stroke="#162844" stroke-width="1" stroke-linejoin="round"/>
<polygon points="748.0,199.5 671.0,342.5 683.0,359.5 760.0,216.5" fill="#0a1228" stroke="#162844" stroke-width="1"/>
<polygon points="671.0,342.5 720.5,326.0 732.5,343.0 683.0,359.5" fill="#0a1228" stroke="#162844" stroke-width="0.8"/>
<polygon points="720.5,326.0 748.0,298.5 760.0,315.5 732.5,343.0" fill="#0a1228" stroke="#162844" stroke-width="0.8"/>
<line x1="671.0" y1="342.5" x2="683.0" y2="359.5" stroke="#2e5eaa" stroke-width="1.2"/>
<line x1="825.0" y1="342.5" x2="837.0" y2="359.5" stroke="#162844" stroke-width="0.8"/>
<polygon points="671.0,342.5 748.0,199.5 825.0,342.5 775.5,326.0 748.0,298.5 720.5,326.0" fill="#111c38" stroke="#2e5eaa" stroke-width="1.5" stroke-linejoin="round"/>
<polygon points="748.0,249.0 770.0,298.5 748.0,320.5 726.0,298.5" fill="#0c1e3a" stroke="#5bc0be" stroke-width="1" stroke-dasharray="3,2"/>
<polygon points="733.6,256.1 748.0,249.0 770.0,298.5" fill="#1a3860" stroke="#5bc0be" stroke-width="1" stroke-linejoin="round"/>
<polygon points="733.6,256.1 770.0,298.5 748.0,320.5" fill="#102a50" stroke="#5bc0be" stroke-width="1" stroke-linejoin="round"/>
<polygon points="733.6,256.1 748.0,320.5 726.0,298.5" fill="#0e2448" stroke="#5bc0be" stroke-width="1" stroke-linejoin="round"/>
<polygon points="733.6,256.1 726.0,298.5 748.0,249.0" fill="#142e58" stroke="#5bc0be" stroke-width="1" stroke-linejoin="round"/>
<circle cx="733.6" cy="256.1" r="2.5" fill="#5bc0be"/>
<circle cx="748.0" cy="199.5" r="3" fill="#f6ae2d"/>
<text x="748.0" y="189.5" fill="#f6ae2d" font-family="monospace" font-size="9" text-anchor="middle">NOSE</text>
<text x="741.6" y="250.1" fill="#5bc0be" font-family="monospace" font-size="8">CANOPY</text>
<text x="663.0" y="356.5" fill="#3a5070" font-family="monospace" font-size="8" text-anchor="end">WING L</text>
<text x="829.0" y="356.5" fill="#3a5070" font-family="monospace" font-size="8">WING R</text>
<line x1="660.0" y1="348.0" x2="672.0" y2="365.0" stroke="#3a5070" stroke-width="1"/>
<text x="640.0" y="359.5" fill="#3a5070" font-family="monospace" font-size="7" text-anchor="end">DEPTH</text>
<rect x="0" y="532" width="920" height="28" fill="#050c1c"/>
<text x="460" y="550" fill="#162844" font-family="monospace" font-size="9" text-anchor="middle">hull: 12v 10f  ·  canopy: 5v 4f  ·  total: ~17v ~14f  ·  light: upper-left  ·  shell-quest asteroids mod</text>
</svg>